<svg id="left_arrow" xmlns="http://www.w3.org/2000/svg" width="14.825" height="14.988" viewBox="0 0 14.825 14.988">
  <path id="Tracé_84526" data-name="Tracé 84526" d="M3.174,10.754l6.294,6.294a.522.522,0,0,0,.369.153h6.741a.521.521,0,0,0,.369-.89L10.637,10s4.385-4.384,6.309-6.311a.521.521,0,0,0-.369-.89H9.837a.522.522,0,0,0-.369.153L6.611,5.807,3.174,9.244A1.068,1.068,0,0,0,3.174,10.754Z" transform="translate(-2.569 -2.505)" fill="#faa432"/>
  <path id="Tracé_84527" data-name="Tracé 84527" d="M3.174,10.754l6.294,6.294a.522.522,0,0,0,.369.153h2.8a.521.521,0,0,0,.369-.89L6.7,10S11.08,5.615,13,3.688a.521.521,0,0,0-.369-.89h-2.8a.522.522,0,0,0-.369.153L3.174,9.244A1.068,1.068,0,0,0,3.174,10.754Z" transform="translate(1.373 -2.505)" fill="#0d9b4d"/>
  <path id="Tracé_84528" data-name="Tracé 84528" d="M4.856,10.754l6.294,6.294a.522.522,0,0,0,.369.153h1.64a.522.522,0,0,1-.369-.153L6.313,10.572a.682.682,0,0,1,0-1.146l6.476-6.475a.522.522,0,0,1,.369-.153h-1.64a.522.522,0,0,0-.369.153L4.856,9.244A1.068,1.068,0,0,0,4.856,10.754Z" transform="translate(-0.309 -2.505)" fill="#ffa816"/>
  <path id="Tracé_84529" data-name="Tracé 84529" d="M2.965,9.037,6.4,5.6,9.259,2.744a.821.821,0,0,1,.576-.239h6.741a.814.814,0,0,1,.576,1.39c-1.664,1.666-5.209,5.211-6.1,6.1l6.1,6.1a.814.814,0,0,1-.576,1.39H9.835a.82.82,0,0,1-.576-.239L2.965,10.961h0A1.363,1.363,0,0,1,2.965,9.037Zm.415,1.51h0l6.294,6.294a.23.23,0,0,0,.162.067h6.741a.228.228,0,0,0,.161-.39l-6.309-6.312a.293.293,0,0,1,0-.414c.044-.044,4.407-4.406,6.309-6.311a.228.228,0,0,0-.162-.389H9.835a.23.23,0,0,0-.162.067L6.817,6.015,3.379,9.451A.777.777,0,0,0,3.379,10.547Z" transform="translate(-2.568 -2.505)" fill="#fff"/>
</svg>
