<svg xmlns="http://www.w3.org/2000/svg" xmlns:xlink="http://www.w3.org/1999/xlink" width="158.447" height="16.426" viewBox="0 0 158.447 16.426">
  <defs>
    <linearGradient id="linear-gradient" x1="0.5" x2="0.5" y2="1" gradientUnits="objectBoundingBox">
      <stop offset="0" stop-color="#94be26"/>
      <stop offset="1" stop-color="#62af21"/>
    </linearGradient>
  </defs>
  <path id="logo-preloader" d="M10.62-15.811,8.262-8.672,10.845,0H6.6L4.932-6.777V0H.82V-15.811H4.932v6.143l1.831-6.143Zm10.386,0V0H16.895V-6.641h-1.23V0H11.553V-15.811h4.111v5.654h1.23v-5.654ZM22.539-4.2h3.945q0,1.1.029,1.392a.742.742,0,0,0,.239.483.806.806,0,0,0,.571.2.694.694,0,0,0,.5-.186.717.717,0,0,0,.22-.479q.024-.293.024-1.182v-2.52a2,2,0,0,1-.879.952,3.026,3.026,0,0,1-1.455.317,3.235,3.235,0,0,1-1.914-.586,2.544,2.544,0,0,1-1.055-1.406,8.718,8.718,0,0,1-.225-2.217v-1.26a16.824,16.824,0,0,1,.132-2.471,3.213,3.213,0,0,1,.679-1.5,3.535,3.535,0,0,1,1.514-1.069,6.1,6.1,0,0,1,2.246-.381,6.587,6.587,0,0,1,2.6.439,3.531,3.531,0,0,1,1.572,1.265,3.708,3.708,0,0,1,.645,1.733q.088.908.088,3.516v2.2q0,2.822-.078,3.774a3.594,3.594,0,0,1-.679,1.8A3.652,3.652,0,0,1,29.629-.112a6.163,6.163,0,0,1-2.373.425,6.035,6.035,0,0,1-2.729-.537A3.241,3.241,0,0,1,23-1.738,5.733,5.733,0,0,1,22.539-4.2Zm3.945-4.932q0,1,.259,1.23a.791.791,0,0,0,.532.234.661.661,0,0,0,.6-.3,2.409,2.409,0,0,0,.19-1.167v-2.861a3.293,3.293,0,0,0-.181-1.367.634.634,0,0,0-.6-.322.8.8,0,0,0-.527.249q-.273.249-.273,1.343Zm12.969-6.68V0H35.508V-8.477a14.894,14.894,0,0,0-.088-2.207.825.825,0,0,0-.483-.562,5.013,5.013,0,0,0-1.763-.19h-.391v-1.843a7.171,7.171,0,0,0,4.346-2.532Zm9.893,7.969v2.725H44.16V-7.842ZM60.01-15.811V0H56.064V-8.477a14.894,14.894,0,0,0-.088-2.207.825.825,0,0,0-.483-.562,5.013,5.013,0,0,0-1.763-.19H53.34v-1.843a7.171,7.171,0,0,0,4.346-2.532Zm10.84,5.352v5.273a12.482,12.482,0,0,1-.2,2.617,3.618,3.618,0,0,1-.811,1.533A3.494,3.494,0,0,1,68.359-.01,5.713,5.713,0,0,1,66.416.3a7.231,7.231,0,0,1-2.354-.327,3.227,3.227,0,0,1-1.494-1.021,4.369,4.369,0,0,1-.791-1.46,9.11,9.11,0,0,1-.234-2.437v-5.518a10.6,10.6,0,0,1,.376-3.262,3.218,3.218,0,0,1,1.494-1.738,5.279,5.279,0,0,1,2.71-.654,5.684,5.684,0,0,1,2.324.454,3.879,3.879,0,0,1,1.533,1.108,3.657,3.657,0,0,1,.688,1.475A13.47,13.47,0,0,1,70.85-10.459ZM66.9-11.787a5.908,5.908,0,0,0-.122-1.577.54.54,0,0,0-.571-.317.565.565,0,0,0-.581.337,5.14,5.14,0,0,0-.142,1.558v7.715a5.726,5.726,0,0,0,.132,1.66.564.564,0,0,0,.571.283.557.557,0,0,0,.576-.332A4.954,4.954,0,0,0,66.9-3.955Zm14.668,1.328v5.273a12.482,12.482,0,0,1-.2,2.617,3.618,3.618,0,0,1-.811,1.533A3.494,3.494,0,0,1,79.082-.01,5.713,5.713,0,0,1,77.139.3a7.231,7.231,0,0,1-2.354-.327,3.227,3.227,0,0,1-1.494-1.021A4.369,4.369,0,0,1,72.5-2.5a9.11,9.11,0,0,1-.234-2.437v-5.518a10.6,10.6,0,0,1,.376-3.262,3.218,3.218,0,0,1,1.494-1.738,5.279,5.279,0,0,1,2.71-.654,5.684,5.684,0,0,1,2.324.454A3.879,3.879,0,0,1,80.7-14.551a3.657,3.657,0,0,1,.688,1.475A13.47,13.47,0,0,1,81.572-10.459Zm-3.945-1.328a5.908,5.908,0,0,0-.122-1.577.54.54,0,0,0-.571-.317.565.565,0,0,0-.581.337,5.14,5.14,0,0,0-.142,1.558v7.715a5.726,5.726,0,0,0,.132,1.66.564.564,0,0,0,.571.283.557.557,0,0,0,.576-.332,4.954,4.954,0,0,0,.137-1.494Zm15.43-4.326L86.875.3h-1.5l6.2-16.416Zm-4.6,3V-10.4a4.8,4.8,0,0,1-.2,1.6,1.9,1.9,0,0,1-.859.928,3.363,3.363,0,0,1-1.743.4,3.885,3.885,0,0,1-1.9-.376,1.991,1.991,0,0,1-.884-.9,3.927,3.927,0,0,1-.229-1.514v-2.842a4.692,4.692,0,0,1,.239-1.733,1.875,1.875,0,0,1,.923-.913,3.667,3.667,0,0,1,1.689-.352,3.7,3.7,0,0,1,1.807.386,2.014,2.014,0,0,1,.928.933A4.515,4.515,0,0,1,88.457-13.115Zm-2.5-.693a2.667,2.667,0,0,0-.063-.771q-.063-.146-.347-.146a.344.344,0,0,0-.342.156,2.2,2.2,0,0,0-.078.762v3.984A2.681,2.681,0,0,0,85.2-9q.068.137.361.137a.323.323,0,0,0,.327-.156,2.2,2.2,0,0,0,.073-.732Zm9.834,8.33v2.725a4.81,4.81,0,0,1-.2,1.592,1.9,1.9,0,0,1-.859.933,3.363,3.363,0,0,1-1.743.4,3.848,3.848,0,0,1-1.9-.381,2.011,2.011,0,0,1-.889-.908,3.9,3.9,0,0,1-.229-1.5V-5.479A4.656,4.656,0,0,1,90.21-7.2a1.9,1.9,0,0,1,.923-.918,3.624,3.624,0,0,1,1.689-.356,3.685,3.685,0,0,1,1.816.391,2.008,2.008,0,0,1,.923.938A4.567,4.567,0,0,1,95.791-5.479Zm-2.5-.684a2.726,2.726,0,0,0-.063-.776q-.063-.151-.347-.151-.264,0-.337.156a2.382,2.382,0,0,0-.073.771v3.984a2.629,2.629,0,0,0,.068.811q.068.137.352.137.264,0,.332-.151a2.34,2.34,0,0,0,.068-.737Zm16.377-9.648V0h-3.6l-2.139-7.187V0h-3.437V-15.811h3.438l2.3,7.119v-7.119Zm5.059,7.871h-3.7v-.869a6.13,6.13,0,0,1,.347-2.319,3.218,3.218,0,0,1,1.392-1.44,5.237,5.237,0,0,1,2.715-.625,5.283,5.283,0,0,1,3.018.708,2.759,2.759,0,0,1,1.221,1.738,27.234,27.234,0,0,1,.205,4.243V0h-3.838V-1.155a2.563,2.563,0,0,1-.933,1.042,2.573,2.573,0,0,1-1.362.347,3.333,3.333,0,0,1-1.9-.581q-.864-.581-.864-2.544V-3.955a3.12,3.12,0,0,1,.459-1.982,6.467,6.467,0,0,1,2.275-1.23,6.5,6.5,0,0,0,2.08-1.025,2.725,2.725,0,0,0,.137-1.074,3.62,3.62,0,0,0-.151-1.323.52.52,0,0,0-.5-.308q-.4,0-.5.259a5.258,5.258,0,0,0-.1,1.343Zm1.25,1.777A2.925,2.925,0,0,0,114.878-5a4.615,4.615,0,0,0-.151,1.348,3.926,3.926,0,0,0,.132,1.3.515.515,0,0,0,.522.293.484.484,0,0,0,.483-.229,3.707,3.707,0,0,0,.112-1.206Zm9.463-8.525v2.041H126.5V-10.6h-1.064v6.934a3.731,3.731,0,0,0,.132,1.426q.132.146,1.1.146V0h-1.592a11.379,11.379,0,0,1-1.924-.112,2.051,2.051,0,0,1-1.016-.518,1.72,1.72,0,0,1-.547-.928,16.447,16.447,0,0,1-.107-2.456V-10.6h-.85v-2.051h.85v-2.041Zm10.967,1.729V0h-4.014l.068-1.077a2.747,2.747,0,0,1-1.011.983,2.838,2.838,0,0,1-1.382.328,3.112,3.112,0,0,1-1.475-.312,2.032,2.032,0,0,1-.864-.83,3.037,3.037,0,0,1-.347-1.079q-.068-.562-.068-2.231v-8.74h3.945v8.818a9.2,9.2,0,0,0,.093,1.8q.093.283.5.283.439,0,.522-.293a11.232,11.232,0,0,0,.083-1.885v-8.721Zm5.361,0-.156,1.7a2.933,2.933,0,0,1,2.49-1.938v4.561a3.305,3.305,0,0,0-1.592.293,1.229,1.229,0,0,0-.625.815,14.62,14.62,0,0,0-.117,2.407V0h-3.945V-12.959ZM153.916-6.25h-5.107v2.8a3.111,3.111,0,0,0,.127,1.133.493.493,0,0,0,.488.254.592.592,0,0,0,.6-.337,3.686,3.686,0,0,0,.151-1.3V-5.41h3.74v.957a8.571,8.571,0,0,1-.151,1.846,3.756,3.756,0,0,1-.708,1.377,3.447,3.447,0,0,1-1.411,1.1A5.462,5.462,0,0,1,149.5.234a6.226,6.226,0,0,1-2.207-.361,3.533,3.533,0,0,1-1.489-.991,3.582,3.582,0,0,1-.737-1.387,8.953,8.953,0,0,1-.205-2.2V-8.486a6.435,6.435,0,0,1,.459-2.681,3.152,3.152,0,0,1,1.5-1.5,5.3,5.3,0,0,1,2.4-.522,5.373,5.373,0,0,1,2.739.63,3.465,3.465,0,0,1,1.514,1.67,7.828,7.828,0,0,1,.435,2.925Zm-3.955-2.109v-.947a4.775,4.775,0,0,0-.107-1.3.425.425,0,0,0-.439-.293q-.41,0-.508.249a5.186,5.186,0,0,0-.1,1.343v.947Zm9.307-7.451V0h-4.062V-15.811Z" transform="translate(-0.82 16.113)" fill="url(#linear-gradient)"/>
</svg>
